<?xml version="1.0" encoding="utf-8"?>
<!-- Generator: Adobe Illustrator 24.3.0, SVG Export Plug-In . SVG Version: 6.00 Build 0)  -->
<svg version="1.1" id="Layer_1" xmlns="http://www.w3.org/2000/svg" xmlns:xlink="http://www.w3.org/1999/xlink" x="0px" y="0px"
	 viewBox="0 0 665 477" style="enable-background:new 0 0 665 477;" xml:space="preserve">
<path d="M197.5,404.3c19.6,21.3,47.6,33.6,77.3,33.6h239.1c49.3,0,89-39.8,89-89V128.2c0-49.3-39.8-89-89-89H274.8
	c-29.1,0-57.1,12.3-77.3,33.6L74.3,207.1c-16.2,17.9-16.2,44.8,0,62.7L197.5,404.3z M95,226.2L218.2,91.8
	c14.6-15.7,35.3-24.6,56.6-24.6h239.1c33.6,0,61,27.4,61,61v221.2c0,33.6-27.4,61-61,61l-239.1,0c-21.3,0-42-9-56.6-24.6L95,251.4
	C88.3,244.1,88.3,232.9,95,226.2L95,226.2z M310.6,290.6l52.1-52.1l-52.1-52.1c-5.6-5.6-5.6-14.6,0-19.6c5.6-5.6,14.6-5.6,19.6,0
	l52.1,52.1l52.1-52.1c5.6-5.6,14.6-5.6,19.6,0c5.6,5.6,5.6,14.6,0,19.6l-51,52.1l52.1,52.1c5.6,5.6,5.6,14.6,0,19.6
	c-2.8,2.8-6.2,3.9-10.1,3.9c-3.9,0-7.3-1.1-10.1-3.9l-52.1-52.1l-52.1,52.1c-2.8,2.8-6.2,3.9-10.1,3.9c-3.9,0-7.3-1.1-10.1-3.9
	C305.6,305.1,305.6,296.2,310.6,290.6L310.6,290.6z"/>
</svg>
